<svg width="5" height="8" xmlns="http://www.w3.org/2000/svg">

 <g>
  <title></title>
  <rect fill="none" id="canvas_background" height="402" width="582" y="-1" x="-1"/>
 </g>
 <g>
  <title></title>
  <path id="svg_1" d="m4.349998,4.599998c-0.2,-0.2 -0.6,-0.2 -0.8,0.1l-0.7,0.8l-0.2,-5c0,-0.3 -0.3,-0.5 -0.6,-0.5c-0.3,0 -0.5,0.3 -0.5,0.6l0.2,5l-0.8,-0.8c-0.2,-0.2 -0.6,-0.2 -0.8,0c-0.2,0.2 -0.2,0.6 0,0.8l1.7,1.9c0.1,0.1 0.3,0.2 0.4,0.2c0,0 0,0 0,0c0.2,0 0.3,-0.1 0.4,-0.2l1.6,-2c0.3,-0.3 0.3,-0.7 0.1,-0.9z" class="st9"/>
 </g>
</svg>