<svg width="15" height="16" xmlns="http://www.w3.org/2000/svg">

 <g>
  <title></title>
  <rect fill="none" id="canvas_background" height="402" width="582" y="-1" x="-1"/>
 </g>
 <g>
  <title></title>
  <g id="svg_1">
   <path id="svg_2" d="m11.100006,1l-0.7,0l0,-1l-1,0l0,1l-1.1,0l0,-1l-1,0l0,1l-1.1,0l0,-1l-1,0l0,1l-1.1,0l0,-1l-1,0l0,1l-0.5,0c-1.5,0 -2.6,1.2 -2.6,2.6l0,8.4c0,1.5 1.2,2.6 2.6,2.6l8.4,0c1.5,0 2.6,-1.2 2.6,-2.6l0,-8.4c0.2,-1.5 -1,-2.6 -2.5,-2.6zm-8.4,1.3l0.5,0l0,0.9l1,0l0,-0.9l1.1,0l0,0.9l1,0l0,-0.9l1.1,0l0,0.9l1,0l0,-0.9l1.1,0l0,0.9l1,0l0,-0.9l0.7,0c0.7,0 1.4,0.6 1.4,1.4l0,0.8l-11.1,0l0,-0.8c-0.1,-0.8 0.5,-1.4 1.2,-1.4zm8.4,11.1l-8.4,0c-0.7,0 -1.4,-0.6 -1.4,-1.4l0,-6.6l11.1,0l0,6.6c0.1,0.8 -0.5,1.4 -1.3,1.4z" class="st1"/>
   <path id="svg_3" d="m9.500006,7.3l-1,0l0,0.6l-3.1,0l0,-0.6l-1,0l0,0.6l-0.9,0l0,1l0.9,0l0,1.1l-0.9,0l0,1l0.9,0l0,0.7l1,0l0,-0.7l3.1,0l0,0.7l1,0l0,-0.7l0.9,0l0,-1l-0.9,0l0,-1.1l0.9,0l0,-1l-0.9,0l0,-0.6zm-1,2.6l-3.1,0l0,-1.1l3.1,0l0,1.1z" class="st1"/>
  </g>
 </g>
</svg>