<svg width="11" height="11" xmlns="http://www.w3.org/2000/svg">

 <g>
  <title></title>
  <rect fill="none" id="canvas_background" height="13" width="13" y="-1" x="-1"/>
 </g>
 <g>
  <title></title>
  <path id="svg_1" d="m10.739398,9.839389l-3.8,-3.7l-0.6,-0.6l0.6,-0.6l3.8,-3.8c0.2,-0.2 0.2,-0.6 -0.1,-0.9c-0.3,-0.3 -0.6,-0.3 -0.9,-0.1l-3.7,3.8l-0.6,0.6l-0.6,-0.6l-3.7,-3.8c-0.2,-0.2 -0.6,-0.2 -0.9,0.1c-0.3,0.3 -0.3,0.6 -0.1,0.9l3.8,3.8l0.6,0.6l-0.6,0.6l-3.8,3.7c-0.2,0.2 -0.2,0.6 0.1,0.9c0.3,0.3 0.6,0.3 0.9,0.1l3.7,-3.7l0.6,-0.6l0.6,0.6l3.7,3.7c0.2,0.2 0.6,0.2 0.9,-0.1c0.3,-0.3 0.3,-0.7 0.1,-0.9z" class="st7"/>
 </g>
</svg>