<svg width="80" height="38" xmlns="http://www.w3.org/2000/svg">

 <g>
  <title></title>
  <rect fill="none" id="canvas_background" height="402" width="582" y="-1" x="-1"/>
 </g>
 <g>
  <title></title>
  <g id="svg_1">
   <path id="svg_2" d="m43.899994,11.9c0,-2.4 -1.3,-3.7 -4.6,-4.6c-2.4,-0.6 -2.9,-1.1 -2.9,-2.1c0,-0.7 0.4,-1.5 1.8,-1.6c1.7,0 2,1 2.2,1.6l3.2,0c-0.2,-1.7 -1.2,-3.4 -4,-3.8l0,-1.4l-2.6,0l0,1.5c-2.1,0.4 -3.7,1.8 -3.7,4.1c0,2.1 1.1,3.5 4.9,4.5c2.1,0.6 2.7,1.1 2.7,2.2c0,0.9 -0.5,1.7 -2.2,1.7c-1.3,0 -2.2,-0.7 -2.5,-1.8l-3.2,0c0.2,2.1 1.7,3.7 4.3,4.1l0,1.8l2.7,0l0,-1.8c2.3,-0.5 4,-1.9 3.9,-4.4z" class="st33"/>
   <g id="svg_3">
    <path id="svg_4" d="m32.499994,32.5l0,1c0,0.2 0,0.4 0.1,0.6c0.5,1.6 3,2.7 6.1,2.7c3.5,0 6.2,-1.5 6.2,-3.3l0,-1c-1.3,1.2 -3.5,2 -6.2,2c-2.6,0 -4.9,-0.8 -6.2,-2z" class="st32"/>
    <path id="svg_5" d="m44.899994,29.8l0,-1c-1.3,1.2 -3.5,2 -6.2,2c-2.6,0 -4.9,-0.8 -6.2,-2l0,1l0,0.1c0,0.2 0,0.4 0.1,0.6c0.5,1.6 3,2.7 6.1,2.7c3.5,0 6.2,-1.5 6.2,-3.3l0,-0.1z" class="st32"/>
    <path id="svg_6" d="m38.699994,22.9c-3,0 -5.5,1.1 -6.1,2.7c-0.1,0.2 -0.1,0.4 -0.1,0.6c0,0.2 0,0.4 0.1,0.6c0.5,1.6 3,2.7 6.1,2.7c3.5,0 6.2,-1.5 6.2,-3.3s-2.7,-3.3 -6.2,-3.3z" class="st32"/>
   </g>
   <g id="svg_7">
    <path id="svg_8" d="m-0.000006,31.9l0,1c0,0.2 0,0.4 0.1,0.6c0.5,1.6 3,2.7 6.1,2.7c3.5,0 6.2,-1.5 6.2,-3.3l0,-1c-1.3,1.2 -3.5,2 -6.2,2c-2.7,0 -4.9,-0.8 -6.2,-2z" class="st32"/>
    <path id="svg_9" d="m12.399994,29.2l0,-1c-1.3,1.2 -3.5,2 -6.2,2c-2.6,0 -4.9,-0.8 -6.2,-2l0,1l0,0.1c0,0.2 0,0.4 0.1,0.6c0.5,1.6 3,2.7 6.1,2.7c3.5,0 6.2,-1.5 6.2,-3.3l0,-0.1z" class="st32"/>
    <path id="svg_10" d="m6.199994,22.3c-3,0 -5.5,1.1 -6.1,2.7c-0.1,0.2 -0.1,0.4 -0.1,0.6c0,0.2 0,0.4 0.1,0.6c0.5,1.6 3,2.7 6.1,2.7c3.5,0 6.2,-1.5 6.2,-3.3s-2.8,-3.3 -6.2,-3.3z" class="st32"/>
   </g>
   <g id="svg_11">
    <path id="svg_12" d="m65.599994,31.9l0,1c0,0.2 0,0.4 0.1,0.6c0.5,1.6 3,2.7 6.1,2.7c3.5,0 6.2,-1.5 6.2,-3.3l0,-1c-1.3,1.2 -3.5,2 -6.2,2c-2.6,0 -4.9,-0.8 -6.2,-2z" class="st32"/>
    <path id="svg_13" d="m77.999994,29.2l0,-1c-1.3,1.2 -3.5,2 -6.2,2c-2.6,0 -4.9,-0.8 -6.2,-2l0,1l0,0.1c0,0.2 0,0.4 0.1,0.6c0.5,1.6 3,2.7 6.1,2.7c3.5,0 6.2,-1.5 6.2,-3.3l0,-0.1z" class="st32"/>
    <path id="svg_14" d="m71.799994,22.3c-3,0 -5.5,1.1 -6.1,2.7c-0.1,0.2 -0.1,0.4 -0.1,0.6c0,0.2 0,0.4 0.1,0.6c0.5,1.6 3,2.7 6.1,2.7c3.5,0 6.2,-1.5 6.2,-3.3s-2.7,-3.3 -6.2,-3.3z" class="st32"/>
   </g>
   <g id="svg_15">
    <path id="svg_16" d="m16.799994,32.1l0,0.9c0,0.2 0,0.4 0.1,0.6c0.5,1.5 2.9,2.6 5.8,2.6c3.3,0 5.9,-1.4 5.9,-3.2l0,-0.9c-1.3,1.2 -3.4,1.9 -5.9,1.9c-2.5,0 -4.7,-0.7 -5.9,-1.9z" class="st36"/>
    <path id="svg_17" d="m22.699994,16c-2.9,0 -5.3,1.1 -5.8,2.6c-0.1,0.2 -0.1,0.4 -0.1,0.6c0,0.2 0,0.4 0.1,0.6c0.5,1.5 2.9,2.6 5.8,2.6c3.3,0 5.9,-1.4 5.9,-3.2c0,-1.8 -2.6,-3.2 -5.9,-3.2z" class="st36"/>
    <path id="svg_18" d="m28.599994,29.5l0,-0.8c-1.3,1.2 -3.4,1.9 -5.9,1.9c-2.5,0 -4.6,-0.7 -5.9,-1.9l0,0.8l0,0.1c0,0.2 0,0.4 0.1,0.6c0.5,1.5 2.9,2.6 5.8,2.6c3.3,0 5.9,-1.4 5.9,-3.2l0,-0.1z" class="st36"/>
    <path id="svg_19" d="m28.599994,22.6l0,-0.9c-1.3,1.2 -3.4,1.9 -5.9,1.9c-2.5,0 -4.6,-0.7 -5.9,-1.9l0,0.9l0,0.1c0,0.2 0,0.4 0.1,0.6c0.5,1.5 2.9,2.6 5.8,2.6c3.3,0 5.9,-1.4 5.9,-3.2l0,-0.1z" class="st36"/>
    <path id="svg_20" d="m28.599994,26l0,-0.8c-1.3,1.2 -3.4,1.9 -5.9,1.9c-2.5,0 -4.6,-0.7 -5.9,-1.9l0,0.8l0,0.1c0,0.2 0,0.4 0.1,0.6c0.5,1.5 2.9,2.6 5.8,2.6c3.3,0 5.9,-1.4 5.9,-3.2l0,-0.1z" class="st36"/>
   </g>
   <g id="svg_21">
    <path id="svg_22" d="m48.699994,31.8l0,1c0,0.2 0,0.4 0.1,0.6c0.5,1.6 3,2.7 6.1,2.7c3.5,0 6.2,-1.5 6.2,-3.3l0,-1c-1.3,1.2 -3.5,2 -6.2,2c-2.7,0 -4.9,-0.8 -6.2,-2z" class="st36"/>
    <path id="svg_23" d="m60.999994,29.1l0,-0.9c-1.3,1.2 -3.5,2 -6.2,2c-2.6,0 -4.9,-0.8 -6.2,-2l0,0.9l0,0.1c0,0.2 0,0.4 0.1,0.6c0.5,1.6 3,2.7 6.1,2.7c3.5,0 6.2,-1.5 6.2,-3.3l0,-0.1z" class="st36"/>
    <path id="svg_24" d="m60.999994,25.6l0,-0.9c-1.3,1.2 -3.5,2 -6.2,2c-2.6,0 -4.9,-0.8 -6.2,-2l0,0.9l0,0.1c0,0.2 0,0.4 0.1,0.6c0.5,1.6 3,2.7 6.1,2.7c3.5,0 6.2,-1.5 6.2,-3.3l0,-0.1z" class="st36"/>
    <path id="svg_25" d="m60.999994,22l0,-1c-1.3,1.2 -3.5,2 -6.2,2c-2.6,0 -4.9,-0.8 -6.2,-2l0,1l0,0.1c0,0.2 0,0.4 0.1,0.6c0.5,1.6 3,2.7 6.1,2.7c3.5,0 6.2,-1.5 6.2,-3.3l0,-0.1z" class="st36"/>
    <path id="svg_26" d="m54.899994,15.1c-3,0 -5.5,1.1 -6.1,2.7c-0.1,0.2 -0.1,0.4 -0.1,0.6c0,0.2 0,0.4 0.1,0.6c0.5,1.6 3,2.7 6.1,2.7c3.5,0 6.2,-1.5 6.2,-3.3s-2.8,-3.3 -6.2,-3.3z" class="st36"/>
   </g>
  </g>
 </g>
</svg>