<svg width="17" height="17" xmlns="http://www.w3.org/2000/svg">

 <g>
  <title></title>
  <rect fill="none" id="canvas_background" height="402" width="582" y="-1" x="-1"/>
 </g>
 <g>
  <title></title>
  <g id="svg_1">
   <path id="svg_2" d="m5.5,7.199998l-3.8,0c-0.9,0 -1.7,-0.8 -1.7,-1.7l0,-3.8c0,-0.9 0.8,-1.7 1.7,-1.7l3.8,0c0.9,0 1.7,0.8 1.7,1.7l0,3.8c0,0.9 -0.8,1.7 -1.7,1.7zm-3.8,-5.8c-0.2,0 -0.3,0.1 -0.3,0.3l0,3.8c0,0.2 0.1,0.3 0.3,0.3l3.8,0c0.2,0 0.3,-0.1 0.3,-0.3l0,-3.8c0,-0.2 -0.1,-0.3 -0.3,-0.3l-3.8,0z" class="st12"/>
   <path id="svg_3" d="m14.2,7.199998l-3.8,0c-0.9,0 -1.7,-0.8 -1.7,-1.7l0,-3.8c0,-0.9 0.8,-1.7 1.7,-1.7l3.8,0c0.9,0 1.7,0.8 1.7,1.7l0,3.8c0,0.9 -0.8,1.7 -1.7,1.7zm-3.8,-5.8c-0.2,0 -0.3,0.1 -0.3,0.3l0,3.8c0,0.2 0.1,0.3 0.3,0.3l3.8,0c0.2,0 0.3,-0.1 0.3,-0.3l0,-3.8c0,-0.2 -0.1,-0.3 -0.3,-0.3l-3.8,0z" class="st12"/>
   <path id="svg_4" d="m14.2,15.899998l-3.8,0c-0.9,0 -1.7,-0.8 -1.7,-1.7l0,-3.8c0,-0.9 0.8,-1.7 1.7,-1.7l3.8,0c0.9,0 1.7,0.8 1.7,1.7l0,3.8c0,0.9 -0.8,1.7 -1.7,1.7zm-3.8,-5.8c-0.2,0 -0.3,0.1 -0.3,0.3l0,3.8c0,0.2 0.1,0.3 0.3,0.3l3.8,0c0.2,0 0.3,-0.1 0.3,-0.3l0,-3.8c0,-0.2 -0.1,-0.3 -0.3,-0.3l-3.8,0z" class="st12"/>
   <path id="svg_5" d="m5.5,15.899998l-3.8,0c-0.9,0 -1.7,-0.8 -1.7,-1.7l0,-3.8c0,-0.9 0.8,-1.7 1.7,-1.7l3.8,0c0.9,0 1.7,0.8 1.7,1.7l0,3.8c0,0.9 -0.8,1.7 -1.7,1.7zm-3.8,-5.8c-0.2,0 -0.3,0.1 -0.3,0.3l0,3.8c0,0.2 0.1,0.3 0.3,0.3l3.8,0c0.2,0 0.3,-0.1 0.3,-0.3l0,-3.8c0,-0.2 -0.1,-0.3 -0.3,-0.3l-3.8,0z" class="st12"/>
  </g>
 </g>
</svg>