<svg width="22" height="18" xmlns="http://www.w3.org/2000/svg">

 <g>
  <title></title>
  <rect fill="none" id="canvas_background" height="402" width="582" y="-1" x="-1"/>
 </g>
 <g>
  <title></title>
  <path id="svg_1" d="m21.000003,6.265688l-2.8,-1l2.6,-1.7c0.2,-0.1 0.3,-0.4 0.3,-0.6c0,-0.2 -0.2,-0.5 -0.4,-0.5l-6.2,-2.4c-0.2,-0.1 -0.4,-0.1 -0.6,0.1l-3.1,2.2l-2.7,-2.1c-0.2,-0.1 -0.4,-0.2 -0.6,-0.1l-6.9,2.4c-0.2,0.1 -0.4,0.3 -0.4,0.5c0,0.2 0.1,0.5 0.2,0.6l2.3,1.8l-2.4,1.5c-0.2,0.1 -0.3,0.4 -0.3,0.6c0,0.2 0.2,0.5 0.4,0.5l2.5,0.9l0,6c0,0.3 0.2,0.6 0.5,0.6l7.1,1.9c0.1,0 0.1,0 0.2,0c0.1,0 0.1,0 0.2,0l6.4,-1.9c0.3,-0.1 0.5,-0.3 0.5,-0.6l0,-5.9l3.2,-1.7c0.2,-0.1 0.4,-0.4 0.3,-0.6s-0.1,-0.4 -0.3,-0.5zm-6.5,-4.8l4.6,1.8l-2.4,1.5l-4.5,-1.7l2.3,-1.6zm-3.6,5.7l-4.9,-1.7l4.8,-1.6l4.2,1.6l-4.1,1.7zm-3.3,-5.7l1.9,1.5l-5.4,1.8l-1.8,-1.4l5.3,-1.9zm-3.6,4.7l5.6,1.9l-1.7,1.3l-5.7,-2l1.8,-1.2zm0.4,3.3l3.5,1.2c0.1,0 0.1,0 0.2,0c0.1,0 0.3,0 0.4,-0.1l1.7,-1.3l0,6.8l-5.8,-1.5l0,-5.1zm12.2,5.1l-5.1,1.5l0,-7.1l3.1,1.6c0.1,0.1 0.2,0.1 0.3,0.1c0.1,0 0.2,0 0.3,-0.1l1.4,-0.7l0,4.7zm-1.7,-5.3l-2.5,-1.3l4.4,-1.8l2.3,0.8l-4.2,2.3z" class="st7"/>
 </g>
</svg>