<svg width="22" height="18" xmlns="http://www.w3.org/2000/svg">

 <g>
  <title></title>
  <rect fill="none" id="canvas_background" height="402" width="582" y="-1" x="-1"/>
 </g>
 <g>
  <title></title>
  <g id="svg_1">
   <rect id="svg_2" height="1.1" width="1.6" class="st7" y="4.699999" x="6"/>
   <rect id="svg_3" height="1.1" width="1.6" class="st7" y="6.999999" x="6"/>
   <path id="svg_4" d="m13.3,5.999999c-0.3,-0.1 -0.6,-0.2 -1,-0.3c-0.2,-0.1 -0.4,-0.1 -0.6,-0.2c-0.1,0 -0.2,-0.1 -0.3,-0.2c-0.1,-0.1 -0.1,-0.1 -0.1,-0.2c0,-0.1 0.1,-0.3 0.2,-0.3c0.1,-0.1 0.3,-0.1 0.5,-0.1c0.2,0 0.3,0 0.5,0.1c0.1,0.1 0.2,0.2 0.2,0.3c0,0 0.1,0.1 0.1,0.1c0,0 0.1,0 0.1,0l0.9,0c0,0 0.1,0 0.1,0c0,0 0,-0.1 0,-0.1c0,-0.2 -0.1,-0.3 -0.2,-0.5c-0.1,-0.2 -0.3,-0.3 -0.5,-0.5c-0.2,-0.1 -0.5,-0.2 -0.8,-0.3l0,-0.5c0,0 0,-0.1 -0.1,-0.1c0,0 -0.1,0 -0.1,0l-0.6,0c0,0 -0.1,0 -0.1,0c0,0 0,0.1 0,0.1l0,0.5c-0.5,0.1 -0.8,0.2 -1.1,0.5c-0.3,0.3 -0.4,0.6 -0.4,0.9c0,0.3 0.1,0.5 0.2,0.7s0.3,0.3 0.5,0.5c0.2,0.1 0.5,0.2 0.9,0.3c0.3,0.1 0.5,0.1 0.6,0.2c0.2,0.1 0.3,0.1 0.3,0.2c0.1,0.1 0.1,0.1 0.1,0.2c0,0.1 -0.1,0.3 -0.2,0.3c-0.1,0.1 -0.3,0.1 -0.6,0.1c-0.2,0 -0.3,0 -0.4,-0.1c-0.1,0 -0.2,-0.1 -0.3,-0.2c-0.1,-0.1 -0.1,-0.1 -0.2,-0.2c0,0 -0.1,-0.1 -0.1,-0.1c0,0 -0.1,0 -0.1,0l-0.9,0c0,0 -0.1,0 -0.1,0c0,0 0,0.1 0,0.1c0,0.2 0.1,0.4 0.2,0.6c0.1,0.2 0.3,0.3 0.5,0.5c0.2,0.1 0.5,0.2 0.9,0.3l0,0.5c0,0 0,0.1 0,0.1c0,0 0.1,0 0.1,0l0.6,0c0,0 0.1,0 0.1,0c0,0 0.1,-0.1 0.1,-0.1l0,-0.5c0.3,0 0.6,-0.1 0.8,-0.2c0.2,-0.1 0.4,-0.3 0.6,-0.5c0.1,-0.2 0.2,-0.4 0.2,-0.7c0,-0.3 -0.1,-0.5 -0.2,-0.7c0.1,-0.2 -0.1,-0.4 -0.3,-0.5z" class="st7"/>
   <path id="svg_5" d="m21,5.299999l0,-0.4c0,-0.6 0,-1.3 -0.2,-2c-0.4,-1.3 -0.9,-2.8 -4.1,-2.8l-1,-0.1l-11.3,0c-1,0 -1.7,0.8 -1.7,1.7l0,9.4l-2,0c-0.4,0 -0.7,0.3 -0.7,0.7l0,1.8c0,1.8 1.4,3.4 3.3,3.7c0,0 0,0 0.1,0c0.1,0 0.2,0 0.2,0l10.3,0c0,0 0,0 0.1,0c0,0 0,0 0,0c0.2,0 0.3,0 0.5,0c1,0 1.7,-0.2 2.2,-0.7c0.5,-0.5 0.7,-1.1 0.7,-2l0,-7.2l2.2,0c0.4,0 0.7,-0.1 0.9,-0.4c0.5,-0.3 0.5,-1.2 0.5,-1.7zm-17.4,10.8c0,0 -0.1,0 -0.1,0c-1.2,-0.2 -2.1,-1.2 -2.1,-2.3l0,-1.1l10.2,0l0,1.8c0.1,0.7 0.2,1.2 0.5,1.6l-8.5,0zm12.4,-9.3l0,0l0,0l0,8c0,0.4 -0.1,0.8 -0.3,0.9c-0.3,0.2 -0.7,0.3 -1.4,0.3c-0.1,0 -0.1,-0.1 -0.2,-0.1c-0.6,-0.2 -1.1,-0.4 -1.2,-1.6l0,-2.5c0,-0.4 -0.3,-0.7 -0.7,-0.7l-8.2,0l0,-9.4c0,-0.2 0.1,-0.3 0.3,-0.3l11.3,0c0.2,0 0.3,0.1 0.3,0.3l0,5.1l0.1,0zm3.5,-0.6l-2.2,0l0,-4.4c0,0 0,-0.1 0,-0.1c1.5,0.2 1.9,1 2.1,1.7c0.1,0.5 0.1,1.1 0.2,1.6l0,0.4c0,0.4 0,0.7 -0.1,0.8z" class="st7"/>
  </g>
 </g>
</svg>