<svg width="18" height="17" xmlns="http://www.w3.org/2000/svg">

 <g>
  <title></title>
  <rect fill="none" id="canvas_background" height="21" width="21" y="-1" x="-1"/>
 </g>
 <g>
  <title></title>
  <g id="svg_1">
   <path id="svg_2" d="m17.100002,9.200001l-0.6,-0.1c-0.1,-0.2 -0.1,-0.3 -0.2,-0.5l0.3,-0.5c0.2,-0.3 0.2,-0.7 -0.1,-1l-0.6,-0.6c-0.3,-0.3 -0.7,-0.3 -1,-0.1l-0.5,0.3c-0.2,-0.1 -0.3,-0.2 -0.5,-0.2l-0.1,-0.6c-0.1,-0.4 -0.4,-0.7 -0.8,-0.7l-0.9,0c-0.4,0 -0.7,0.3 -0.8,0.7l-0.1,0.6c-0.2,0.1 -0.3,0.1 -0.5,0.2l-0.5,-0.3c-0.3,-0.2 -0.8,-0.2 -1,0.1l-0.6,0.6c-0.3,0.3 -0.3,0.7 -0.1,1l0.4,0.5c-0.1,0.2 -0.1,0.3 -0.2,0.5l-0.6,0.1c-0.4,0.1 -0.7,0.4 -0.7,0.8l0,0.9c0,0.4 0.3,0.7 0.7,0.8l0.6,0.1c0.1,0.2 0.1,0.3 0.2,0.5l-0.3,0.5c-0.2,0.3 -0.2,0.7 0.1,1l0.6,0.6c0.3,0.3 0.7,0.3 1,0.1l0.5,-0.4c0.2,0.1 0.3,0.1 0.5,0.2l0.1,0.6c0.1,0.4 0.4,0.7 0.8,0.7l0.9,0c0.4,0 0.7,-0.3 0.8,-0.7l0.1,-0.6c0.2,-0.1 0.3,-0.1 0.5,-0.2l0.5,0.3c0.3,0.2 0.7,0.2 1,-0.1l0.6,-0.6c0.3,-0.3 0.3,-0.7 0.1,-1l-0.3,-0.5c0.1,-0.2 0.2,-0.3 0.2,-0.5l0.6,-0.1c0.4,-0.1 0.7,-0.4 0.7,-0.8l0,-0.9c-0.1,-0.3 -0.4,-0.6 -0.8,-0.7zm-1.4,2c-0.1,0.3 -0.2,0.6 -0.3,0.8c-0.1,0.2 -0.1,0.3 0,0.5l0.5,0.6l-0.5,0.5l-0.6,-0.5c-0.1,-0.1 -0.3,-0.1 -0.5,0c-0.3,0.2 -0.5,0.3 -0.8,0.3c-0.2,0 -0.3,0.2 -0.3,0.4l-0.1,0.8l-0.7,0l-0.1,-0.8c0,-0.2 -0.2,-0.3 -0.3,-0.4c-0.3,-0.1 -0.5,-0.2 -0.8,-0.3c-0.1,-0.1 -0.4,-0.1 -0.5,0l-0.6,0.5l-0.5,-0.5l0.4,-0.6c0.1,-0.1 0.1,-0.3 0,-0.5c-0.2,-0.3 -0.3,-0.5 -0.3,-0.8c0,-0.2 -0.2,-0.3 -0.4,-0.3l-0.8,-0.1l0,-0.7l0.8,-0.1c0.2,0 0.3,-0.2 0.4,-0.3c0.1,-0.3 0.2,-0.6 0.3,-0.8c0.1,-0.2 0.1,-0.3 0,-0.5l-0.6,-0.7l0.5,-0.5l0.6,0.4c0.1,0.1 0.3,0.1 0.5,0c0.3,-0.2 0.5,-0.3 0.8,-0.3c0.2,0 0.3,-0.2 0.3,-0.4l0.1,-0.8l0.7,0l0.1,0.8c0,0.2 0.2,0.3 0.3,0.4c0.3,0.1 0.6,0.2 0.8,0.3c0.2,0.1 0.3,0.1 0.5,0l0.6,-0.5l0.5,0.5l-0.5,0.6c-0.1,0.1 -0.1,0.3 0,0.5c0.2,0.3 0.3,0.5 0.3,0.8c0,0.2 0.2,0.3 0.4,0.3l0.8,0.1l0,0.7l-0.8,0.1c0,0.2 -0.1,0.3 -0.2,0.5z" class="st8"/>
   <path id="svg_3" d="m12.600002,8.600001c-1,0 -1.9,0.8 -1.9,1.9s0.8,1.9 1.9,1.9s1.9,-0.8 1.9,-1.9s-0.9,-1.9 -1.9,-1.9zm1.1,1.8c0,0.6 -0.5,1.1 -1.1,1.1s-1.1,-0.5 -1.1,-1.1s0.5,-1.1 1.1,-1.1s1.1,0.5 1.1,1.1z" class="st8"/>
   <path id="svg_4" d="m5.500002,6.200001c1.6,0 2.9,-1.4 2.9,-3.1s-1.3,-3.1 -2.9,-3.1c-1.6,0 -3,1.4 -3,3.1s1.4,3.1 3,3.1zm0,-4.8c0.9,0 1.5,0.8 1.5,1.7s-0.7,1.7 -1.5,1.7c-0.9,0 -1.6,-0.8 -1.6,-1.7s0.7,-1.7 1.6,-1.7z" class="st8"/>
   <path id="svg_5" d="m7.400002,14.500001c-0.3,0 -0.5,0.2 -0.6,0.4c-0.1,0 -0.3,0.1 -0.5,0.1l-2,0c-0.2,0 -0.4,0 -0.5,-0.1l-1.1,-3.7c-0.1,-0.3 -0.4,-0.5 -0.7,-0.5l-0.1,0c-0.2,0 -0.3,0 -0.5,0l0,-2.7c0.1,0 0.3,0 0.5,0l1.5,0c0.4,0.3 1.2,0.5 2,0.5c0.4,0 0.7,-0.3 0.7,-0.7s-0.3,-0.7 -0.7,-0.7c-0.7,0 -1.1,-0.2 -1.2,-0.2c-0.1,-0.2 -0.3,-0.2 -0.5,-0.2l-1.8,0c-1.1,0 -1.9,0.4 -1.9,1.1l0,3.4c0,0.6 0.6,1 1.5,1.1l1,3.2c0.1,0.6 0.8,1 1.8,1l2,0c1.1,0 1.9,-0.5 1.9,-1.2c-0.1,-0.5 -0.4,-0.8 -0.8,-0.8z" class="st8"/>
  </g>
 </g>
</svg>