<svg width="75" height="54" xmlns="http://www.w3.org/2000/svg">

 <g>
  <title></title>
  <rect fill="none" id="canvas_background" height="402" width="582" y="-1" x="-1"/>
 </g>
 <g>
  <title></title>
  <g id="svg_1">
   <path id="svg_2" d="m69.899997,42.999982c-0.5,0 -1,0.1 -1.5,0.2l-0.3,0c-0.2,-0.4 -0.5,-0.8 -0.9,-1.2c-1.4,-1.4 -3.3,-1.8 -5,-1.2c-0.5,-0.9 -1.4,-1.4 -2.4,-1.4c-0.2,0 -0.5,0 -0.7,0.1c-0.2,-0.6 -0.6,-1.1 -1,-1.5c-1.8,-1.8 -4.7,-1.8 -6.4,0c-0.7,0.7 -1.1,1.5 -1.2,2.3c-0.2,-0.1 -0.4,-0.1 -0.7,-0.1c-1,0 -1.8,0.6 -2.3,1.4c-0.6,-1.1 -1.8,-1.8 -3.1,-1.8c-0.3,0 -0.5,0 -0.7,0.1c-4.5,-3.8 -4.9,-14.9 -4.2,-17.6l-2.3,0c0,0 0.5,8.8 -2.3,14.4c-1.4,-0.3 -3,0.1 -4.1,1.3c-0.4,0.4 -0.6,0.8 -0.9,1.2c-0.3,-0.1 -0.6,-0.1 -0.9,-0.1c-1.5,0 -2.8,1.2 -2.8,2.8c0,0.1 0,0.2 0,0.3c-0.7,-0.5 -1.5,-0.7 -2.4,-0.7c-1.1,0 -2.2,0.4 -2.9,1.2c-0.6,-0.5 -1.4,-0.8 -2.2,-0.8c-0.9,0 -1.6,0.3 -2.3,0.8c0,-1.2 -0.5,-2.4 -1.4,-3.4c-1.9,-1.9 -4.9,-1.9 -6.8,0c-0.5,0.5 -0.9,1.1 -1.1,1.8c0,0 -0.1,0 -0.1,0c-1.2,0 -2.3,0.9 -2.5,2.1c-2.5,0.2 -4.5,2.3 -4.5,4.9c0,2.7 2.2,4.9 4.9,4.9c0.2,0 0.5,0 0.7,-0.1l63.4,0l0,0c0.3,0.1 0.6,0.1 0.9,0.1c2.7,0 4.9,-2.2 4.9,-4.9c0,-2.9 -2.2,-5.1 -4.9,-5.1z" class="st30"/>
   <path id="svg_3" d="m44.299997,11.999982l-0.1,-0.5c0,-2.3 -0.1,-4.4 -1,-6.4c-0.3,-0.6 -0.7,-1.2 -1.1,-1.8c0,0 -0.1,0 -0.1,0.1c-1.1,0.3 -2.3,0.5 -3.6,0.5c0,0 0,0 -0.1,0c-1.5,0 -2.9,-0.2 -4.1,-0.6c-0.4,0.6 -0.8,1.2 -1.2,1.9c-1,1.9 -1.1,4 -1.1,6.3l0,0.5c0,0.1 0.1,1.1 0.2,1.1c0,0 0,0 0,0l0,9.6l2.2,0c0,0.2 0,0.4 0.1,0.6l1.7,4.5l3.9,0l1.1,-4.1c0.1,-0.3 0.2,-0.6 0.2,-0.9l2.5,0l0,-10.5c0,0.3 0.1,0.9 0.2,0.9c0,0 0,0 0,0c0.2,-0.1 0.3,-1 0.3,-1.2z" class="st38"/>
   <path id="svg_4" d="m38.399997,3.399982c1.2,0 2.4,-0.1 3.5,-0.4c-0.8,-1 -1.7,-1.9 -2.7,-2.7c-0.6,-0.4 -1.4,-0.4 -2,0c-1,0.7 -1.9,1.6 -2.6,2.6c1.1,0.3 2.4,0.5 3.8,0.5z" class="st38"/>
   <g id="svg_5">
    <circle id="svg_6" r="3.4" cy="9.299982" cx="38.299997" class="st33"/>
    <path id="svg_7" d="m38.299997,12.899982c-1.2,0 -2.4,-0.6 -3.1,-1.7l0,0c-1.1,-1.7 -0.6,-3.9 1.1,-5c0.8,-0.5 1.8,-0.7 2.7,-0.5c0.9,0.2 1.7,0.8 2.3,1.6c1.1,1.7 0.6,3.9 -1.1,5c-0.6,0.4 -1.3,0.6 -1.9,0.6zm-2.7,-1.9c0.9,1.5 2.9,1.9 4.4,1c1.5,-0.9 1.9,-2.9 1,-4.4c-0.5,-0.7 -1.2,-1.2 -2,-1.4c-0.8,-0.2 -1.7,0 -2.4,0.4c-0.7,0.5 -1.2,1.2 -1.4,2c-0.2,0.8 -0.1,1.6 0.4,2.4l0,0z" class="st33"/>
   </g>
   <circle id="svg_8" r="2" cy="9.299982" cx="38.299997" class="st0"/>
   <g id="svg_9">
    <circle id="svg_10" r="0.2" cy="9.399982" cx="40.899997" class="st0"/>
    <path id="svg_11" d="m40.899997,9.699982c-0.1,0 -0.1,0 0,0c-0.1,0 -0.2,-0.1 -0.2,-0.1l0,0c0,-0.1 -0.1,-0.1 0,-0.2c0,-0.1 0.1,-0.1 0.1,-0.2c0.1,-0.1 0.3,0 0.4,0.1c0.1,0.1 0,0.3 -0.1,0.4c-0.1,-0.1 -0.2,0 -0.2,0zm-0.1,-0.5c0,0 0,0 0,0c-0.1,0 -0.1,0.1 -0.2,0.1c0,0 0,0.1 0,0.1l0,0c0,0 0.1,0.1 0.1,0.1c0,0 0.1,0 0.1,0c0.1,0 0.1,-0.1 0,-0.2c0.2,-0.1 0.1,-0.1 0,-0.1z" class="st0"/>
   </g>
   <g id="svg_12">
    <circle id="svg_13" r="0.2" cy="9.199982" cx="35.599997" class="st0"/>
    <path id="svg_14" d="m35.599997,9.499982c-0.1,0 -0.2,0 -0.2,-0.1c0,-0.1 -0.1,-0.1 0,-0.2c0,-0.1 0.1,-0.1 0.1,-0.2c0.1,-0.1 0.3,0 0.4,0.1c0.1,0.1 0,0.3 -0.1,0.4c-0.1,-0.1 -0.1,0 -0.2,0zm0,-0.5c0,0 0,0 0,0c-0.1,0 -0.1,0.1 -0.2,0.1c0,0 0,0.1 0,0.1l0,0c0,0.1 0.1,0.1 0.2,0c0.1,0 0.1,-0.1 0,-0.2c0.1,0 0.1,0 0,0c0.1,0 0,0 0,0z" class="st0"/>
   </g>
   <g id="svg_15">
    <circle id="svg_16" r="0.2" cy="7.499982" cx="40.199997" class="st0"/>
    <path id="svg_17" d="m40.199997,7.799982c-0.1,0 -0.1,0 0,0l0,0c-0.2,0 -0.3,-0.2 -0.3,-0.4c0,-0.1 0.1,-0.1 0.1,-0.2c0.1,0 0.1,-0.1 0.2,0c0.2,0 0.3,0.2 0.2,0.4c0,0.1 -0.1,0.2 -0.2,0.2zm-0.1,-0.2c0.1,0 0.2,0 0.2,-0.1c0,-0.1 0,-0.2 -0.1,-0.2c0,0 -0.1,0 -0.1,0s-0.1,0.1 -0.1,0.1c0,0.1 0,0.2 0.1,0.2l0,0z" class="st0"/>
   </g>
   <g id="svg_18">
    <circle id="svg_19" r="0.2" cy="10.999982" cx="36.299997" class="st0"/>
    <path id="svg_20" d="m36.299997,11.299982c0,0 0,0 0,0c-0.2,0 -0.3,-0.2 -0.3,-0.4c0,-0.2 0.2,-0.3 0.4,-0.2c0.1,0 0.1,0.1 0.2,0.1c0,0.1 0.1,0.1 0,0.2c0,0.2 -0.1,0.3 -0.3,0.3zm0,-0.4c-0.1,0 -0.1,0.1 -0.2,0.1c0,0.1 0,0.2 0.1,0.2c0.1,0 0.2,0 0.2,-0.1c0,0 0,-0.1 0,-0.1c0,-0.1 0,-0.1 -0.1,-0.1c0.1,0 0,0 0,0z" class="st0"/>
   </g>
   <g id="svg_21">
    <circle id="svg_22" r="0.2" cy="6.699982" cx="38.299997" class="st0"/>
    <path id="svg_23" d="m38.299997,6.899982c0,0 0,0 0,0c-0.1,0 -0.2,-0.1 -0.2,-0.1c0,-0.1 -0.1,-0.1 0,-0.2c0,-0.1 0.1,-0.1 0.1,-0.2c0.1,-0.1 0.3,0 0.4,0.1c0.1,0.1 0,0.3 -0.1,0.4l0,0c-0.1,0 -0.1,0 -0.2,0zm0,-0.4c0,0 0,0 0,0c-0.1,0 -0.1,0.1 -0.2,0.1c0,0 0,0.1 0,0.1c0,0 0.1,0.1 0.1,0.1c0,0 0.1,0 0.1,0c0.1,0 0.1,-0.1 0.1,-0.2c0,-0.1 0,-0.1 -0.1,-0.1c0.1,0 0,0 0,0z" class="st0"/>
   </g>
   <g id="svg_24">
    <circle id="svg_25" r="0.2" cy="11.899982" cx="38.099997" class="st0"/>
    <path id="svg_26" d="m38.099997,12.199982c-0.1,0 -0.2,0 -0.2,-0.1c0,-0.1 -0.1,-0.1 0,-0.2c0,-0.1 0.1,-0.1 0.1,-0.2c0.1,0 0.1,-0.1 0.2,0c0.1,0 0.1,0.1 0.2,0.1c0.1,0.1 0,0.3 -0.1,0.4l0,0c0,0 -0.1,0 -0.2,0zm0,-0.5c0,0 0,0 0,0c-0.1,0 -0.1,0.1 -0.2,0.1c0,0 0,0.1 0,0.1c0,0.1 0.1,0.1 0.2,0c0.1,0 0.1,-0.1 0,-0.2c0.2,0.1 0.1,0 0,0c0.1,0 0.1,0 0,0z" class="st0"/>
   </g>
   <g id="svg_27">
    <circle id="svg_28" r="0.2" cy="7.399982" cx="36.499997" class="st0"/>
    <path id="svg_29" d="m36.499997,7.599982c-0.1,0 -0.1,0 0,0c-0.2,0 -0.3,-0.2 -0.3,-0.4c0,-0.2 0.2,-0.3 0.4,-0.2c0.2,0 0.3,0.2 0.2,0.4l0,0c-0.1,0.2 -0.2,0.2 -0.3,0.2zm0,-0.4c-0.1,0 -0.1,0.1 -0.2,0.1c0,0.1 0,0.2 0.1,0.2c0.1,0 0.2,0 0.2,-0.1s0,-0.2 -0.1,-0.2c0,0 0,0 0,0z" class="st0"/>
   </g>
   <g id="svg_30">
    <circle id="svg_31" r="0.2" cy="11.199982" cx="39.999997" class="st0"/>
    <path id="svg_32" d="m39.999997,11.499982c0,0 0,0 0,0c-0.1,0 -0.2,-0.1 -0.2,-0.1c0,-0.1 -0.1,-0.1 0,-0.2c0,-0.1 0.1,-0.1 0.1,-0.2c0.1,0 0.1,-0.1 0.2,0c0.1,0 0.1,0.1 0.2,0.1c0,0.1 0.1,0.1 0,0.2l0,0c0,0.1 -0.1,0.2 -0.3,0.2zm0,-0.5c0,0 0,0 0,0c-0.1,0 -0.1,0.1 -0.2,0.1c0,0 0,0.1 0,0.1c0,0 0.1,0.1 0.1,0.1c0.1,0 0.2,0 0.2,-0.1l0,0c0,0 0,-0.1 0,-0.1c0,0 0,-0.1 -0.1,-0.1c0,0 0,0 0,0z" class="st0"/>
   </g>
   <path id="svg_33" d="m38.199997,14.799982c0,0 0,0 0,0c-1.2,0 -1.3,7.6 -1.3,8c0,0.3 0,8 1.2,8c0,0 0,0 0,0c1.2,0 1.3,-7.6 1.3,-8c0,-0.4 0,-8 -1.2,-8z" class="st33"/>
   <path id="svg_34" d="m47.899997,17.299982l-3.7,-5.4c0,0 0,0 0,0c0,0 0,0 0,0c0,0 0,0 0,0c0,0 0,0 0,0c0,0 0,0 0,0c0,0 0,0 0,0c0,0 0,0 0,0c0,0 0,0 0,0c0,0 0,0 0,0c0,0 0,0 0,0c0,0 0,0 0,0c0,0 0,0 0,0c0,0 0,0 0,0c0,0 0,0 0,0c0,0 0,0 0,0c0,0 0,0 0,0l-0.6,10.1c0,0 0,0 0,0c0,0 0,0 0,0l2,6.9c0,0.1 0.1,0.2 0.2,0.2c0.4,0 0.7,-0.2 1,-0.6c0.2,-0.3 0.4,-0.8 0.4,-1.1c0,-0.2 0.3,-2.5 0.6,-4.5c0.4,-2.9 0.7,-4.7 0.7,-4.9c-0.3,-0.1 -0.4,-0.4 -0.6,-0.7z" class="st33"/>
   <path id="svg_35" d="m32.799997,22.399982l-0.3,-10.4c0,0 0,0 0,0c0,0 0,0 0,0c0,0 0,0 0,0c0,0 0,0 0,-0.1c0,0 0,0 0,0c0,0 0,0 0,0c0,0 0,0 0,0c0,0 0,0 0,0c0,0 0,0 -0.1,0c0,0 0,0 0,0c0,0 0,0 0,0c0,0 0,0 0,0c0,0 0,0 0,0c0,0 0,0 0,0c0,0 0,0 0,0c0,0 0,0 0,0l-3.7,5.3c-0.2,0.2 -0.3,0.5 -0.3,0.9l1,9.6c0,0.4 0.1,0.7 0.4,0.9c0.3,0.3 0.6,0.4 0.9,0.4c0,0 0,0 0,0c0.1,0 0.2,-0.1 0.2,-0.1l1.9,-6.5c0,0 0,0 0,0c0,0 0,0 0,0z" class="st33"/>
   <path id="svg_36" d="m56.699997,6.099982l-1.5,-0.9l-0.8,-1.6c-0.1,-0.1 -0.3,-0.1 -0.4,0l-0.8,1.6l-1.5,0.9c-0.1,0 -0.1,0.1 -0.1,0.2c0,0.1 0,0.1 0.1,0.2l1.5,0.9l0.8,1.6c0,0.1 0.1,0.1 0.2,0.1c0.1,0 0.2,0 0.2,-0.1l0.8,-1.6l1.5,-0.9c0.1,0 0.1,-0.1 0.1,-0.2c0,-0.1 0,-0.1 -0.1,-0.2z" class="st33"/>
   <path id="svg_37" d="m21.199997,30.799982l-1.2,-0.7l-0.7,-1.2c0,-0.1 -0.1,-0.1 -0.2,-0.1c-0.1,0 -0.1,0 -0.2,0.1l-0.7,1.2l-1.2,0.7c-0.1,0 -0.1,0.1 -0.1,0.2c0,0.1 0,0.1 0.1,0.2l1.2,0.7l0.7,1.2c0,0.1 0.1,0.1 0.2,0.1c0.1,0 0.1,0 0.2,-0.1l0.7,-1.2l1.2,-0.7c0.1,0 0.1,-0.1 0.1,-0.2c0,-0.1 -0.1,-0.2 -0.1,-0.2z" class="st33"/>
   <path id="svg_38" d="m59.099997,11.399982l-0.8,-0.4l-0.4,-0.8c-0.1,-0.1 -0.3,-0.1 -0.4,0l-0.4,0.8l-0.8,0.4c-0.1,0 -0.1,0.1 -0.1,0.2c0,0.1 0,0.1 0.1,0.2l0.8,0.4l0.4,0.8c0,0.1 0.1,0.1 0.2,0.1c0.1,0 0.2,0 0.2,-0.1l0.4,-0.8l0.8,-0.4c0.1,0 0.1,-0.1 0.1,-0.2c0,-0.1 0,-0.2 -0.1,-0.2z" class="st33"/>
   <path id="svg_39" d="m15.199997,22.299982c0.6,-0.3 1,-1 1,-1.7c0,-1.1 -0.9,-2 -2,-2c-0.1,0 -0.3,0 -0.4,0c-0.3,-1.5 -1.6,-2.7 -3.2,-2.7c-1.4,0 -2.5,0.8 -3,2c-0.1,0 -0.2,0 -0.3,0c-1.3,0 -2.3,1 -2.3,2.3c0,0.9 0.5,1.7 1.3,2.1c0,0 4.9,0.9 8.9,0z" class="st36"/>
   <path id="svg_40" d="m70.599997,21.899982c0.6,-0.3 1.1,-1 1.1,-1.7c0,-1 -0.8,-1.9 -1.9,-1.9c-0.1,0 -0.1,0 -0.2,0c-0.4,-1 -1.4,-1.6 -2.5,-1.6c-1.3,0 -2.4,0.9 -2.6,2.2c-0.1,0 -0.2,0 -0.3,0c-0.9,0 -1.6,0.7 -1.6,1.6c0,0.6 0.3,1.1 0.8,1.4c-0.1,0 2.4,1.2 7.2,0z" class="st36"/>
   <path id="svg_41" d="m22.799997,8.599982c0.4,-0.2 0.6,-0.5 0.6,-1c0,-0.6 -0.5,-1.1 -1.1,-1.1c0,0 -0.1,0 -0.1,0c-0.2,-0.5 -0.8,-0.9 -1.4,-0.9c-0.7,0 -1.4,0.5 -1.5,1.2c-0.1,0 -0.1,0 -0.2,0c-0.5,0 -0.9,0.4 -0.9,0.9c0,0.3 0.2,0.6 0.5,0.8c0,0 2.1,0.9 4.1,0.1z" class="st30"/>
   <path id="svg_42" d="m56.099997,30.999982c-0.4,-0.2 -0.7,-0.6 -0.7,-1.1c0,-0.7 0.5,-1.3 1.2,-1.3c0,0 0.1,0 0.1,0c0.3,-0.6 0.9,-1.1 1.6,-1.1c0.8,0 1.5,0.6 1.7,1.5c0.1,0 0.1,0 0.2,0c0.6,0 1,0.5 1,1.1c0,0.4 -0.2,0.8 -0.5,0.9c0.1,0 -2.3,1 -4.6,0z" class="st30"/>
  </g>
 </g>
</svg>