<svg width="54" height="58" xmlns="http://www.w3.org/2000/svg">

 <g>
  <title></title>
  <rect fill="none" id="canvas_background" height="402" width="582" y="-1" x="-1"/>
 </g>
 <g>
  <title></title>
  <g id="svg_1">
   <g id="svg_2">
    <polygon id="svg_3" points="43.199981689453125,52.20001220703125 26.399993896484375,57.20001220703125 26.399993896484375,38.600006103515625 43.199981689453125,41.100006103515625 " class="st39"/>
    <polygon id="svg_4" points="7.79998779296875,37.300018310546875 26.399993896484375,38.600006103515625 26.399993896484375,57.20001220703125 7.79998779296875,52.20001220703125 " class="st36"/>
    <polyline id="svg_5" points="25.79998779296875,26.800018310546875 35.699981689453125,19.899993896484375 51.899993896484375,26.100006103515625 42,32.399993896484375 " class="st40"/>
    <polyline id="svg_6" points="8.600006103515625,32.399993896484375 0.29998779296875,26.100006103515625 18.29998779296875,19.899993896484375 27,26.800018310546875 " class="st40"/>
    <polyline id="svg_7" points="8.399993896484375,32.300018310546875 0,37.600006103515625 19.29998779296875,44.5 27,38.600006103515625 " class="st40"/>
    <polyline id="svg_8" points="26.399993896484375,38.600006103515625 37,44.20001220703125 52.5,36.100006103515625 42,32.399993896484375 " class="st40"/>
    <polygon id="svg_9" points="8.399993896484375,32.399993896484375 26.29998779296875,26.300018310546875 42,32.399993896484375 26.699981689453125,38.5 " class="st39"/>
   </g>
   <g id="svg_10">
    <path id="svg_11" d="m24.499994,24.300006l2.2,2.7l1.9,-1.1l2.7,3.1l0.8,-5.4c0.1,-0.7 -0.4,-1.3 -1.1,-1.5l-6.7,-1c-0.7,-0.1 -1.4,0.4 -1.5,1.1l-0.5,3.6l2.2,-1.5z" class="st33"/>
    <path id="svg_12" d="m28.399994,26.900006l-5.6,3.2c-0.2,0.1 -0.1,0.3 0.1,0.4l7.3,1.1c0.4,0.1 0.8,-0.2 0.8,-0.6l0.1,-0.9l-2.7,-3.2z" class="st33"/>
    <path id="svg_13" d="m22.299994,29.600006l3.8,-2.2l-1.7,-2.1l-2.2,1.5l-0.3,2.4c-0.1,0.3 0.2,0.5 0.4,0.4z" class="st33"/>
    <path id="svg_14" d="m30.099994,24.100006c0,0.3 -0.4,0.6 -0.7,0.5c-0.3,0 -0.6,-0.4 -0.5,-0.7c0,-0.3 0.4,-0.6 0.7,-0.5c0.3,0.1 0.5,0.4 0.5,0.7z" class="st0"/>
   </g>
   <g id="svg_15">
    <path id="svg_16" d="m26.399994,12.300006l-1.3,-7.1c-0.1,-0.4 -0.4,-0.6 -0.8,-0.6l-7.1,1.3c-0.4,0.1 -0.6,0.4 -0.6,0.8l1.3,7.1c0.1,0.4 0.4,0.6 0.8,0.6l7.1,-1.3c0.5,-0.1 0.7,-0.4 0.6,-0.8zm-9.1,-5.8l7.1,-1.3c0.1,0 0.2,0 0.2,0.1l1,5.2l-2.7,-1.5l-1.1,1.3l-2.3,-1.4l-1.5,2.1l-0.8,-4.1c0,-0.3 0,-0.4 0.1,-0.4zm1.2,7.3l-0.4,-2.2l1.5,-2.1l1.8,1.1l-2.9,3.2l0,0c0.1,0.1 0,0 0,0zm7.3,-1.2l-6.4,1.2l3.6,-4.1l2.7,1.5l0.2,1.2c0,0.1 0,0.1 -0.1,0.2z" class="st33"/>
    <path id="svg_17" d="m22.799994,8.000006c0.3,-0.1 0.6,-0.4 0.5,-0.7c-0.1,-0.3 -0.4,-0.6 -0.7,-0.5c-0.3,0.1 -0.6,0.4 -0.5,0.7c0.1,0.4 0.4,0.6 0.7,0.5z" class="st33"/>
   </g>
   <polygon id="svg_18" points="38.79998779296875,0 40.399993896484375,3.100006103515625 43.399993896484375,4.800018310546875 40.399993896484375,6.5 38.79998779296875,9.600006103515625 37.100006103515625,6.5 34.199981689453125,4.800018310546875 37.100006103515625,3.100006103515625 " class="st33"/>
   <polygon id="svg_19" points="45.399993896484375,12.20001220703125 46.199981689453125,13.800018310546875 47.79998779296875,14.70001220703125 46.199981689453125,15.600006103515625 45.399993896484375,17.20001220703125 44.5,15.600006103515625 43,14.70001220703125 44.5,13.800018310546875 " class="st33"/>
  </g>
 </g>
</svg>