<svg width="23" height="17" xmlns="http://www.w3.org/2000/svg">

 <g>
  <title></title>
  <rect fill="none" id="canvas_background" height="20.8" width="25.89999" y="-1" x="-1"/>
 </g>
 <g>
  <title></title>
  <g id="svg_1">
   <path id="svg_2" d="m7.100006,10.300001l1,0l0,-1l0,-1.6l0,-1l-1,0l-2.5,0l-1,0l0,1l0,1.6l0,1l1,0l2.5,0zm-2.5,-2.6l2.5,0l0,1.6l-2.5,0l0,-1.6z" class="st7"/>
   <rect id="svg_3" height="1" width="12.3" class="st7" y="12.500001" x="3.400006"/>
   <path id="svg_4" d="m19.900006,0.000001l-13.5,0c-0.7,0 -1.3,0.3 -1.7,0.8c-0.3,0.3 -0.4,0.8 -0.4,1.2l0,0.9l-1.5,0c-0.9,0 -1.7,0.4 -2.3,1.1c-0.4,0.5 -0.5,1 -0.5,1.6l0,8.7c0,1.5 1.3,2.7 2.8,2.7l13.5,0c1.5,0 2.8,-1.2 2.8,-2.7l0,-1.6l0.8,0c1.2,0 2.1,-0.9 2.1,-2l0,-8.7c0,-1.1 -1,-2 -2.1,-2zm-2.3,14.4c0,0.7 -0.6,1.3 -1.4,1.3l-13.5,0c-0.8,0 -1.4,-0.6 -1.4,-1.3l0,-8.7c0,-0.3 0.1,-0.6 0.3,-0.8c0.3,-0.3 0.7,-0.6 1.1,-0.6l13.5,0c0.8,0 1.4,0.6 1.4,1.3l0,8.8zm3,-3.7c0,0.3 -0.3,0.6 -0.7,0.6l-0.8,0l0,-5.7c0,-1.5 -1.3,-2.7 -2.8,-2.7l-10.6,0l0,-0.9c0,-0.2 0.1,-0.3 0.1,-0.3c0.1,-0.2 0.4,-0.3 0.6,-0.3l13.5,0c0.4,0 0.7,0.3 0.7,0.6l0,8.7z" class="st7"/>
  </g>
 </g>
</svg>