<svg width="81" height="52" xmlns="http://www.w3.org/2000/svg">

 <g>
  <title></title>
  <rect fill="none" id="canvas_background" height="402" width="582" y="-1" x="-1"/>
 </g>
 <g>
  <title></title>
  <g id="svg_1">
   <path id="svg_2" d="m67.3,37.299994l-4.5,0l-4.5,0c0,0 -8.3,6.1 -8.3,7.6c0,1.5 0,7.3 0,7.3l12.9,0l12.9,0c0,0 0,-5.8 0,-7.3c-0.2,-1.5 -8.5,-7.6 -8.5,-7.6z" class="st30"/>
   <path id="svg_3" d="m66.4,37.299994l0,-5.5l-7.4,0l0,5.8c0,1.1 0.5,2.1 1.3,2.8c-0.1,0.2 -0.2,0.4 -0.2,0.6c0,0.8 1.2,1.4 2.7,1.4c1.5,0 2.7,-0.6 2.7,-1.4c0,-0.3 -0.1,-0.5 -0.4,-0.7c0.7,-0.8 1.3,-1.9 1.3,-3z" class="st31"/>
   <path id="svg_4" d="m17.3,37.299994l-4.5,0l-4.5,0c0,0 -8.3,6.1 -8.3,7.6c0,1.5 0,7.3 0,7.3l12.9,0l12.9,0c0,0 0,-5.8 0,-7.3c-0.2,-1.5 -8.5,-7.6 -8.5,-7.6z" class="st30"/>
   <path id="svg_5" d="m8.9,34.299994l0,3.3c0,1.2 0.6,2.2 1.5,2.9c-0.2,0.2 -0.3,0.4 -0.3,0.6c0,0.8 1.2,1.4 2.7,1.4c1.5,0 2.7,-0.6 2.7,-1.4c0,-0.3 -0.1,-0.5 -0.4,-0.7c0.9,-0.7 1.6,-1.8 1.6,-3.1l0,-3l-7.8,0z" class="st31"/>
   <path id="svg_6" d="m7.1,23.399994c0,0 1.1,8.9 -3.9,9.7c3.3,1.1 4.8,1.4 7.6,1.7c2.8,0.3 11.5,-1.2 11.5,-1.2s-7,-3.9 -3.4,-10" class="st32"/>
   <path id="svg_7" d="m56.2,24.299994c0,0 2.2,8.9 -2.8,9.7c3.3,1.1 4.8,1.4 7.6,1.7c2.8,0.3 11.5,-1.2 11.5,-1.2s-7,-3.9 -3.4,-10" class="st33"/>
   <path id="svg_8" d="m17.3,37.299994l3,2.3l-4.5,3.8l-3,-3.8l-3,3.8l-4.5,-3.8l3,-2.3c-0.1,0 5.2,4.6 9,0z" class="st0"/>
   <ellipse id="svg_9" ry="2.3" rx="1.1" cy="28.999994" cx="6.3" class="st34"/>
   <ellipse id="svg_10" ry="2.3" rx="1.1" cy="28.999994" cx="19.2" class="st34"/>
   <ellipse id="svg_11" ry="8" rx="6.8" cy="28.599994" cx="12.8" class="st34"/>
   <path id="svg_12" d="m16.9,29.799994l-0.8,0c0,-0.4 -0.3,-0.8 -0.8,-0.8c-0.4,0 -0.8,0.3 -0.8,0.8l-0.8,0c0,-0.8 0.7,-1.5 1.5,-1.5c1,-0.1 1.7,0.6 1.7,1.5z" class="st35"/>
   <path id="svg_13" d="m11.6,29.799994l-0.8,0c0,-0.4 -0.3,-0.8 -0.8,-0.8c-0.4,0 -0.8,0.3 -0.8,0.8l-0.8,0c0,-0.8 0.7,-1.5 1.5,-1.5s1.7,0.6 1.7,1.5z" class="st35"/>
   <path id="svg_14" d="m18.8,15.299994c-1.5,1.5 -4.4,0.8 -8.7,0.8c-0.2,0 -0.5,0 -0.7,0.1c-7.1,2.5 -3.4,11.3 -3.4,11.3c0,0 0.1,0 0.1,-0.1c0.3,-2.2 1.3,-4.1 2.8,-5.3c1.9,-0.2 7.5,-0.2 10.6,5.2c0,0 0,0 0,0.1c0,0 0.1,0.1 0.1,0.1c0.7,-2.3 0.7,-13.7 -0.8,-12.2z" class="st32"/>
   <path id="svg_15" d="m69.2,26.699994c-0.1,0 -0.2,0 -0.3,0.1c-0.6,-3.5 -3.1,-6.1 -6,-6.1c-3,0 -5.5,2.7 -6,6.4c-0.2,-0.2 -0.4,-0.3 -0.6,-0.3c-0.6,0 -1.1,1 -1.1,2.3c0,1.3 0.5,2.3 1.1,2.3c0.3,0 0.5,-0.2 0.7,-0.5c0.9,3.4 3.6,5.8 5.9,5.8c2.2,0 4.9,-2.3 5.8,-5.5c0.1,0.1 0.3,0.2 0.5,0.2c0.6,0 1.1,-1 1.1,-2.3c0,-1.4 -0.5,-2.4 -1.1,-2.4z" class="st34"/>
   <path id="svg_16" d="m66.9,29.799994l-0.8,0c0,-0.4 -0.3,-0.8 -0.8,-0.8c-0.4,0 -0.8,0.3 -0.8,0.8l-0.8,0c0,-0.8 0.7,-1.5 1.5,-1.5s1.7,0.6 1.7,1.5z" class="st35"/>
   <path id="svg_17" d="m61.6,29.799994l-0.8,0c0,-0.4 -0.3,-0.8 -0.8,-0.8c-0.4,0 -0.8,0.3 -0.8,0.8l-0.8,0c0,-0.8 0.7,-1.5 1.5,-1.5s1.7,0.6 1.7,1.5z" class="st35"/>
   <path id="svg_18" d="m44.9,34.099994l-6,0l-6,0c0,0 -11,7.6 -11,9.5s0,8.6 0,8.6l17,0l17,0c0,0 0,-6.7 0,-8.6s-11,-9.5 -11,-9.5z" class="st36"/>
   <path id="svg_19" d="m38.7,38.399994l0,0c-2.7,0 -4.8,-2.2 -4.8,-4.8l0,-3.7l10,0l0,3.3c0,2.9 -2.4,5.2 -5.2,5.2z" class="st31"/>
   <path id="svg_20" d="m44.9,33.199994l4,3l-6,5l-4,-5l-4,5l-6,-5l4,-3c0,0 7,6 12,0z" class="st0"/>
   <path id="svg_21" d="m47.6,19.299994c-0.9,-4.6 -4.5,-8 -8.7,-8s-7.8,3.4 -8.7,8c-0.7,0.2 -1.3,1.5 -1.3,3c0,1.7 0.7,3 1.5,3c0,0 0.1,0 0.1,0c1.5,4.1 5.2,7 8.4,7s6.9,-2.9 8.4,-7c0,0 0.1,0 0.1,0c0.8,0 1.5,-1.3 1.5,-3c0,-1.6 -0.6,-2.8 -1.3,-3z" class="st34"/>
   <path id="svg_22" d="m44.2,23.199994l-0.7,0c0,-0.6 -0.5,-1.1 -1.1,-1.1s-1.1,0.5 -1.1,1.1l-0.8,0c0,-1 0.8,-1.9 1.9,-1.9s1.8,0.9 1.8,1.9z" class="st35"/>
   <path id="svg_23" d="m37.2,23.199994l-0.7,0c0,-0.6 -0.5,-1.1 -1.1,-1.1s-1.1,0.5 -1.1,1.1l-0.8,0c0,-1 0.8,-1.9 1.9,-1.9s1.8,0.9 1.8,1.9z" class="st35"/>
   <path id="svg_24" d="m46.9,6.499994c-3.2,3.6 -5.8,0.9 -11.5,0.9c-0.3,0 -0.7,0 -1,0.1c-9.4,2.8 -4.5,12.7 -4.5,12.7c0,0 0.1,0 0.1,-0.1c0.4,-2.9 1.8,-5.4 3.8,-7c2.5,-0.2 9.9,-0.3 14,6.9c0,0 0,0.1 0,0.1c0,0 0.1,0.1 0.1,0.1c1,-2.6 0.7,-15.7 -1,-13.7z" class="st32"/>
   <polygon id="svg_25" points="41.900001525878906,52.199981689453125 40,41.79998779296875 41.69999694824219,39.600006103515625 38.80000305175781,36.100006103515625 36.19999694824219,39.600006103515625 37.30000305175781,41.100006103515625 37.599998474121094,41.600006103515625 35.599998474121094,52.29998779296875 " class="st32"/>
   <path id="svg_26" d="m69.4,25.899994c0,-0.1 0,-0.1 0,0c0,-0.4 0.1,-0.8 0.1,-1.1c0,-4 -3,-7.2 -6.8,-7.2c-3.7,0 -6.8,3.2 -6.8,7.2c0,0.4 0,0.7 0.1,1.1c0,0 0,0.1 0,0.1c0,0 0,0.2 0.1,0.5c0.1,0.5 0.3,1 0.5,1.4c0.3,0.8 0.5,1.5 0.4,1c-0.1,-0.6 0.3,-2.1 0.6,-3.2c0.5,-0.5 4.4,-3.6 9.5,-0.1c0.5,0.3 0.8,0.7 1.1,1c0.2,0.6 0.3,1.3 0.3,1.8l0,0.3c0,0 0,0 0,-0.1c0,0.1 0,0.2 0,0.3c-0.1,0.6 0.3,-0.6 0.6,-1.7c0.1,-0.2 0.1,-0.4 0.2,-0.6c0,-0.4 0.1,-0.7 0.1,-0.7zm-9,-4.5c0.8,-0.5 1.6,-0.7 2.6,-0.7c0.5,0 1,0.1 1.5,0.3l-4.1,0.4z" class="st33"/>
   <circle id="svg_27" r="0.4" cy="44.199994" cx="12.6" class="st32"/>
   <circle id="svg_28" r="0.4" cy="47.199994" cx="12.6" class="st32"/>
   <circle id="svg_29" r="0.4" cy="44.199994" cx="62.6" class="st32"/>
   <circle id="svg_30" r="0.4" cy="47.199994" cx="62.6" class="st32"/>
   <path id="svg_31" d="m67.3,37.299994l3,2.3l-4.5,3.8l-3,-3.8l-3,3.8l-4.5,-3.8l3,-2.3c-0.1,0 5.2,4.6 9,0z" class="st0"/>
   <path id="svg_32" d="m68.1,24.099994c-1.6,-1.5 -3.3,-2.6 -5.3,-2.8c-1,-0.1 -1.9,0.1 -2.8,0.5c-0.9,0.4 -1.7,1 -2.5,1.8c0.5,-1 1.2,-1.8 2.2,-2.4c0.9,-0.6 2.1,-0.9 3.3,-0.8c1.2,0.1 2.3,0.5 3.2,1.2c0.7,0.6 1.5,1.5 1.9,2.5z" class="st37"/>
   <polygon id="svg_33" points="70.69999694824219,0 72.30000305175781,3.199981689453125 75.4000015258789,4.899993896484375 72.30000305175781,6.600006103515625 70.69999694824219,9.79998779296875 69,6.600006103515625 66,4.899993896484375 69,3.199981689453125 " class="st33"/>
   <polygon id="svg_34" points="77.5,12.5 78.30000305175781,14.100006103515625 79.89999389648438,15 78.30000305175781,16 77.5,17.600006103515625 76.5999984741211,16 75,15 76.5999984741211,14.100006103515625 " class="st33"/>
  </g>
 </g>
</svg>