<svg width="11" height="17" xmlns="http://www.w3.org/2000/svg">

 <g>
  <title></title>
  <rect fill="none" id="canvas_background" height="402" width="582" y="-1" x="-1"/>
 </g>
 <g>
  <title></title>
  <g id="svg_1">
   <path id="svg_2" d="m5.600006,6.200002c-1.6,0 -3,-1.4 -3,-3.1s1.3,-3.1 3,-3.1c1.6,0 2.9,1.4 2.9,3.1s-1.3,3.1 -2.9,3.1zm0,-4.7c-0.9,0 -1.6,0.8 -1.6,1.7s0.7,1.7 1.6,1.7c0.9,0 1.5,-0.8 1.5,-1.7s-0.7,-1.7 -1.5,-1.7z" class="st29"/>
   <path id="svg_3" d="m6.300006,16.400002l-2,0c-1,0 -1.8,-0.4 -1.8,-1l-1,-3.2c-0.9,-0.1 -1.5,-0.5 -1.5,-1.1l0,-3.4c0,-0.7 0.7,-1.1 1.9,-1.1l1.8,0c0.2,0 0.4,0.1 0.5,0.2c0.1,0.1 0.5,0.2 1.2,0.2s1.1,-0.2 1.2,-0.2c0.1,-0.2 0.3,-0.2 0.5,-0.2l1.8,0c1.1,0 1.9,0.4 1.9,1.1l0,3.4c0,0.6 -0.6,1 -1.7,1.1l-0.9,3.2c-0.1,0.6 -0.8,1 -1.9,1zm-2.5,-1.5c0.1,0 0.3,0.1 0.5,0.1l2,0c0.2,0 0.4,0 0.5,-0.1l1,-3.7c0.1,-0.3 0.4,-0.5 0.7,-0.5l0.4,0c0.2,0 0.3,0 0.5,0l0,-2.7c-0.1,0 -0.3,0 -0.5,0l-1.5,0c-0.4,0.3 -1.2,0.5 -2,0.5s-1.5,-0.2 -2,-0.5l-1.5,0c-0.2,0 -0.3,0 -0.5,0l0,2.7c0.1,0 0.3,0 0.5,0l0.1,0c0.3,0 0.6,0.2 0.7,0.5l1.1,3.7zm5.7,-6.8l0,0l0,0z" class="st29"/>
  </g>
 </g>
</svg>